<?xml version="1.0" encoding="UTF-8"?>
<svg id="Layer_1" xmlns="http://www.w3.org/2000/svg" width="14mm" height="14mm" version="1.1" viewBox="0 0 39.7 39.7">
  <!-- Generator: Adobe Illustrator 29.3.1, SVG Export Plug-In . SVG Version: 2.1.0 Build 151)  -->
  <defs>
    <style>
      .st0 {
        fill: #fff;
      }

      .st1 {
        fill: red;
      }

      .st2 {
        display: none;
      }
    </style>
  </defs>
  <g class="st2">
    <path class="st0" d="M1.4,19.7l18.5,18.5,18.5-18.5c-6.2-6.2-12.3-12.3-18.5-18.5L1.4,19.7"/>
    <path class="st1" d="M0,19.7l19.8,19.8,19.8-19.8L19.8-.2,0,19.7ZM36.5,19.7l-16.7,16.7L3.2,19.7,19.8,3l16.7,16.7"/>
    <path d="M19.8,9.4h-.1c-.8,0-1.5.3-2.1.8-.2.2-.4.5-.4.8,0,0,0,0,0,.2s0,.2,0,.3c0,0,1.4,9.2,1.4,9.4.1.8.9,1.4,1.7,1.3.7,0,1.2-.6,1.3-1.3,0-.2,1.4-9.3,1.4-9.4,0,0,0-.1,0-.2s0-.2,0-.3c-.1-.4-.4-.8-.7-1-.6-.4-1.3-.6-2-.6h-.2,0ZM20,23.5h0c-.7,0-1.3.4-1.7,1-.3.5-.5,1.1-.4,1.6,0,.6.4,1.1.8,1.5.4.3.9.5,1.4.5.7,0,1.4-.4,1.8-1,.3-.5.5-1.1.4-1.6,0-.3-.1-.5-.2-.8-.4-.8-1.1-1.2-2-1.3"/>
  </g>
  <g class="st2">
    <path d="M12-10v4.6c0,.6-.2,1.1-.5,1.4s-.8.5-1.5.5-1.1-.2-1.5-.5c-.3-.3-.5-.8-.5-1.5v-4.6h.8v4.6c0,.4,0,.8.3,1,.2.2.5.3.9.3s.7-.1.9-.3c.2-.2.3-.5.3-1v-4.6h.8Z"/>
    <path d="M16.7-4.9l.7-3.4h.8l-1.2,4.8h-.6l-.9-3.4-.9,3.4h-.6l-1.2-4.8h.8l.7,3.3.9-3.3h.6l.9,3.4Z"/>
    <path d="M21.5-3.5c0-.1,0-.3-.1-.5-.3.4-.6.6-1.1.6s-.8-.1-1-.4c-.2-.2-.4-.6-.4-1s.2-.9.5-1.2c.3-.3.8-.4,1.4-.4h.6v-.5c0-.3,0-.5-.2-.6s-.3-.2-.6-.2-.4,0-.6.2c-.1.1-.2.3-.2.5h-.8c0-.2,0-.5.2-.7.1-.2.3-.4.6-.5.2-.1.5-.2.8-.2.5,0,.9.1,1.1.4.3.2.4.6.4,1.1v2.4c0,.4,0,.7.2,1h0c0,0-.8,0-.8,0ZM20.5-4.1c.2,0,.4,0,.6-.2.2-.1.3-.2.4-.4v-1.1h-.4c-.4,0-.7,0-.9.3-.2.2-.3.4-.3.7s0,.5.2.6.3.2.6.2Z"/>
    <path d="M23.3-6.1c0-.8.1-1.3.4-1.7.3-.4.7-.6,1.2-.6s.9.2,1.1.6v-.5h.8V-3.5c0,.6-.2,1.1-.5,1.4-.3.3-.7.5-1.3.5s-.5,0-.8-.2c-.3-.1-.5-.3-.7-.4l.3-.5c.3.3.7.5,1.1.5.7,0,1-.4,1-1.1v-.6c-.3.4-.6.6-1.1.6s-.9-.2-1.2-.6c-.3-.4-.4-.9-.4-1.6v-.5ZM24-5.7c0,.5,0,.9.2,1.2.2.3.4.4.8.4s.7-.2.9-.6v-2.4c-.2-.4-.5-.6-.9-.6s-.6.1-.8.4c-.2.3-.2.6-.2,1.2v.5Z"/>
    <path d="M30.4-3.5c0-.1,0-.3-.1-.5-.3.4-.6.6-1.1.6s-.8-.1-1-.4c-.2-.2-.4-.6-.4-1s.2-.9.5-1.2.8-.4,1.4-.4h.6v-.5c0-.3,0-.5-.2-.6s-.3-.2-.6-.2-.4,0-.6.2c-.1.1-.2.3-.2.5h-.8c0-.2,0-.5.2-.7s.3-.4.6-.5.5-.2.8-.2c.5,0,.9.1,1.1.4.3.2.4.6.4,1.1v2.4c0,.4,0,.7.2,1h0c0,0-.8,0-.8,0ZM29.3-4.1c.2,0,.4,0,.6-.2s.3-.2.4-.4v-1.1h-.4c-.4,0-.7,0-.9.3-.2.2-.3.4-.3.7s0,.5.2.6c.1.1.3.2.6.2Z"/>
  </g>
  <g>
    <path class="st1" d="M19.8,39.7l19.8-19.8L19.8,0,0,19.8l19.8,19.8Z"/>
    <path class="st0" d="M19.8,36.5L3.2,19.8,19.8,3.2l16.7,16.7-16.7,16.7Z"/>
    <g>
      <g>
        <path d="M11.9,19.8h15.5"/>
        <rect x="11.9" y="19.7" width="15.5" height=".3"/>
      </g>
      <g>
        <path d="M25.1,22.6l1.8,1.3-1.7.8,2.3.2-.6.8h1.3v.9s-16.2,0-16.2,0c0,0,2.7-.8,3.2-.5.6-.3,4.9-2.1,4.9-2M15.9,22.7v-4.7c0,0-2.3-1.3-2.3-1.3,0,0-.4-.2-.9,0-.2,0-.4.1-.4.1,0,0,1.3-1.1,1.5-1,.2,0,1.9.9,1.9.9,0,0-.2-1.3-.6-1.6s-2.2-1.7-2.2-1.7v-.3l2.4,1.4s0-1.4-.4-2.2c-.5-.8-.8-1.5-.8-1.5h.1c0-.1,1.2,1.7,1.2,1.7l.4-1.2h.2c0,0-.3,1.7,0,2.2.2.5,1,3.5,1,3.5l1.2-1.7s0-.7,0-1.2c0-.5-.1-2.7-.1-2.7h.2l.3,2.4,1.9-2.2v.2s-1.8,2.3-1.8,2.8c0,.5.2.8-.1,1.5s-.5,1.2-.5,1.2c0,0,1-1.2,1.4-1.3.4,0,1,0,1.5-.3s1.4-1.5,1.4-1.5l-1.6,2.4s-.7,0-1,.4c-.3.3-1.5,1.7-1.5,1.7v3.2l2,1-2.5.4-.6.9-.8-.7-2.2.2,1.9-1.1Z"/>
        <path d="M28.3,26.9h-.1s-16.2,0-16.2,0v-.2c.4-.1,2.6-.8,3.2-.5.4-.2,1.5-.7,2.6-1.1,2.3-.9,2.3-.9,2.4-.9h0s0,0,0,0h-.2.1,0c0,.1,0,.1,0,.1-.3,0-4.2,1.7-4.9,2h0s0,0,0,0c-.2-.2-1.3,0-2.3.3h15.3c0,0,0-.6,0-.6h-1.4l.6-.9-2.5-.2,1.9-.9-1.7-1.2v-.2c.1,0,2.1,1.4,2.1,1.4l-1.5.7,2.1.2-.6.8h1.2v1.1ZM17.1,24.5l-.9-.7-2.2.2v-.2c0,0,1.8-1.1,1.8-1.1v-4.6c0,0-2.2-1.3-2.2-1.3,0,0-.3-.2-.8,0-.2,0-.4.1-.4.1v-.2c0,0,.2-.3.6-.5.7-.5.8-.5,1-.5.2,0,1.3.6,1.7.8,0-.4-.3-1.1-.6-1.3-.4-.4-2.2-1.7-2.2-1.7h0v-.6l2.4,1.4c0-.4,0-1.3-.4-1.9-.5-.8-.8-1.5-.8-1.5h0c0,0,.3-.3.3-.3l1.1,1.7.3-1.1h.5c0-.1,0,0,0,0,0,.5-.3,1.8,0,2.2.2.5.7,2.5.9,3.2l1-1.4c0-.1,0-.7,0-1.1,0-.5-.1-2.6-.1-2.7h0c0-.1.4-.1.4-.1l.3,2.3,1.9-2.2v.6h0c-.7.9-1.8,2.4-1.7,2.8h0c0,.6.1.9-.2,1.6-.1.2-.2.4-.3.6.3-.3.8-.7,1-.8h0c0,0,.2,0,.3,0,.4,0,.8,0,1.1-.3.4-.3,1.4-1.5,1.4-1.5h.2c0,.1-1.6,2.6-1.6,2.6h0s-.7,0-1,.3c-.3.3-1.3,1.5-1.5,1.7v3.1l2.3,1.1-2.8.4-.6.9ZM16.3,23.5l.7.6.6-.8,2.2-.3-1.8-.9v-3.3h0s1.2-1.4,1.5-1.8c.3-.3.9-.4,1.1-.4l.9-1.3c-.2.2-.4.4-.6.6-.4.3-.9.3-1.3.3,0,0-.2,0-.2,0-.3,0-1.1.9-1.4,1.2h-.2c0-.1.2-.6.5-1.3.3-.6.2-.9.2-1.3h0c0-.5.6-1.4,1.1-2.2l-1.2,1.4-.3-2.5c0,.5,0,2.1.1,2.5,0,.5,0,1.2,0,1.2h0s-1.3,1.9-1.3,1.9v-.2c0,0-.8-2.9-1-3.4-.2-.5,0-1.7,0-2.2h0s-.4,1.4-.4,1.4l-1.1-1.7c.1.3.4.8.7,1.3.5.8.4,2.2.4,2.2v.2s-2.4-1.4-2.4-1.4h0c.3.3,1.7,1.5,2.1,1.8.5.4.7,1.6.7,1.7v.2s-.2,0-.2,0c0,0-1.6-.8-1.9-.9-.1,0-.5.3-1,.6.5,0,.8,0,.8.1l2.4,1.3v4.8c0,0-1.6.9-1.6.9l1.8-.2ZM13.8,15.9s0,0,0,0c0,0,0,0,0,0Z"/>
      </g>
      <g>
        <path class="st0" d="M19.2,24.1c.6-.2,1.5-.6,2-1.4.6-.8,2.5-4.2,5.2-3.9-.1.4-.6,1.1-.6,1.1l1.9-.6s0,2.6-3.6,4.2c-1.7.6-2.1.6-2.2.8-.1.2-.8,1.3-.8,1.3l-3-1.3s.8,0,1.1-.2h0Z"/>
        <path d="M21.1,25.8l-3.1-1.4v-.3c0,0,.8,0,1.1-.2h0c.5-.2,1.4-.6,2-1.4,0,0,.1-.2.2-.2.7-1.1,2.6-4,5.2-3.7h.2s0,.2,0,.2c0,.2-.3.6-.4.8l1.8-.5v.2s0,.7-.5,1.6c-.4.8-1.3,1.9-3.3,2.8h0c-.6.2-1,.4-1.3.5-.5.2-.7.2-.8.3-.1.2-.8,1.2-.8,1.2h0ZM18.6,24.4l2.4,1.1c.2-.3.6-1,.8-1.2.1-.2.3-.2.9-.4.3-.1.7-.2,1.3-.4,1.8-.8,2.7-1.9,3.1-2.6.3-.5.4-1,.4-1.2l-2.1.6.2-.3s.3-.6.5-.9c0,0,0,0,0,0-2.3,0-4,2.6-4.7,3.6,0,.1-.1.2-.2.3-.5.8-1.4,1.2-2,1.4h0s0,0,0,0c-.2,0-.4.1-.6.1Z"/>
      </g>
    </g>
    <ellipse cx="26.3" cy="20.9" rx=".3" ry=".3"/>
  </g>
</svg>