<?xml version="1.0" encoding="UTF-8"?>
<svg id="Layer_2" data-name="Layer 2" xmlns="http://www.w3.org/2000/svg" width="300.82" height="40" viewBox="0 0 300.82 40">
  <defs>
    <style>
      .cls-1 {
        fill: #fff;
      }

      .cls-2 {
        fill: #231f20;
      }

      .cls-3 {
        fill: #402312;
      }
    </style>
  </defs>
  <g id="Layer_1-2" data-name="Layer 1">
    <g>
      <g id="symbol_14" data-name="symbol 14">
        <g>
          <g>
            <path class="cls-1" d="M221.17,1.04h32.44c1.56,0,2.82,1.26,2.82,2.82v32.44c0,1.56-1.26,2.82-2.82,2.82h-32.44c-1.56,0-2.82-1.26-2.82-2.82V3.86c0-1.56,1.26-2.82,2.82-2.82Z"/>
            <path d="M253.6,39.74h-32.44c-1.9,0-3.44-1.54-3.44-3.44V3.86c0-1.9,1.54-3.44,3.44-3.44h32.44c1.9,0,3.44,1.54,3.44,3.44v32.44c0,1.9-1.54,3.44-3.44,3.44ZM221.17,1.66c-1.21,0-2.2.99-2.2,2.2v32.44c0,1.21.99,2.2,2.2,2.2h32.44c1.21,0,2.2-.99,2.2-2.2V3.86c0-1.21-.99-2.2-2.2-2.2h-32.44Z"/>
          </g>
          <g>
            <g>
              <g>
                <rect class="cls-1" x="224.78" y="15.87" width="9.73" height="19.72"/>
                <path d="M235.18,36.26h-11.08V15.19h11.08v21.07ZM225.45,34.91h8.37v-18.36h-8.37v18.36Z"/>
              </g>
              <rect x="228.49" y="10.97" width="2.3" height="5.14"/>
              <rect x="228.49" y="5.03" width="2.3" height="3.29"/>
              <path d="M236.91,10.18h-1.62v-1.08h1.62v1.08ZM233.66,10.18h-1.62v-1.08h1.62v1.08ZM230.42,10.18h-1.62v-1.08h1.62v1.08ZM227.17,10.18h-1.62v-1.08h1.62v1.08ZM223.93,10.18h-1.62v-1.08h1.62v1.08Z"/>
            </g>
            <g>
              <g>
                <path d="M247.99,13.93c-.18.31-3.78-1.47-8.03-3.98-4.25-2.51-7.56-4.79-7.37-5.1.18-.31,3.78,1.47,8.03,3.98,4.25,2.51,7.56,4.79,7.37,5.1Z"/>
                <g>
                  <path class="cls-1" d="M251.36,15.77c-.46.9-1.88,1.1-3.18.44s-1.97-1.93-1.52-2.83c.46-.9,1.88-1.1,3.18-.44,1.3.66,1.97,1.93,1.52,2.83Z"/>
                  <path d="M249.73,16.79c-.53,0-1.1-.14-1.64-.41-1.39-.71-2.11-2.1-1.6-3.1.51-1,2.06-1.23,3.45-.52.66.34,1.2.84,1.5,1.41.32.59.35,1.19.1,1.69-.25.5-.76.82-1.43.91-.13.02-.25.03-.39.03ZM248.29,12.74c-.66,0-1.21.25-1.45.72-.41.8.23,1.95,1.43,2.56.59.3,1.23.43,1.79.35.53-.07.93-.32,1.13-.7.19-.38.16-.84-.1-1.32-.27-.5-.74-.94-1.33-1.24-.49-.25-1-.37-1.46-.37Z"/>
                </g>
              </g>
              <g>
                <path d="M248.67,9.54c.06.35-3.83,1.33-8.7,2.17-4.87.85-8.86,1.25-8.92.89-.06-.35,3.83-1.33,8.7-2.17,4.87-.85,8.86-1.25,8.92-.89Z"/>
                <g>
                  <ellipse class="cls-1" cx="249.93" cy="9.32" rx="2.63" ry="1.83" transform="translate(1.38 37.12) rotate(-8.52)"/>
                  <path d="M249.64,11.37c-.53,0-1.03-.11-1.45-.32-.6-.3-.98-.77-1.06-1.32-.17-1.11.96-2.2,2.5-2.43.74-.11,1.46-.01,2.04.27.6.3.98.77,1.06,1.32h0c.08.55-.14,1.11-.63,1.57-.47.44-1.13.75-1.87.86-.2.03-.4.04-.59.04ZM250.21,7.66c-.17,0-.35.01-.53.04-1.33.2-2.3,1.08-2.17,1.98.06.42.36.78.85,1.02.51.25,1.15.33,1.8.24.66-.1,1.24-.37,1.66-.75.39-.37.57-.8.51-1.22h0c-.06-.42-.36-.78-.85-1.02-.37-.18-.81-.28-1.27-.28Z"/>
                </g>
              </g>
              <path class="cls-1" d="M243.23,10.69c-.05.31-.35.52-.66.46-.31-.05-.52-.35-.46-.66.05-.31.35-.52.66-.46.31.05.52.35.46.66Z"/>
            </g>
            <g>
              <path class="cls-2" d="M238.62,23.23c.39,0,.69.14.91.42.26.33.39.87.39,1.63s-.13,1.3-.39,1.64c-.22.27-.52.41-.91.41s-.7-.15-.94-.45c-.24-.3-.36-.84-.36-1.61s.13-1.3.39-1.63c.22-.27.52-.41.91-.41ZM238.62,23.87c-.09,0-.18.03-.25.09-.07.06-.13.17-.17.32-.05.2-.08.53-.08,1s.02.79.07.97.11.29.18.35c.07.06.15.09.25.09s.18-.03.25-.09c.07-.06.13-.17.17-.32.05-.2.08-.53.08-1s-.02-.79-.07-.97-.11-.29-.18-.35c-.07-.06-.15-.09-.25-.09Z"/>
              <path class="cls-2" d="M240.58,26.49h.77v.55c0,.22-.02.4-.06.53-.04.13-.11.24-.22.35-.11.1-.24.18-.41.24l-.15-.32c.16-.05.27-.12.33-.21.07-.09.1-.21.1-.37h-.37v-.77Z"/>
              <path class="cls-2" d="M242,26.23l.77-.08c.02.17.09.31.19.41.11.1.23.15.37.15.16,0,.3-.06.41-.2s.17-.33.17-.59c0-.25-.06-.43-.17-.55-.11-.12-.25-.18-.43-.18-.22,0-.42.1-.59.29l-.62-.09.39-2.09h2.03v.72h-1.45l-.12.68c.17-.09.35-.13.52-.13.34,0,.63.12.87.37.24.25.36.57.36.97,0,.33-.1.62-.29.88-.26.35-.62.53-1.09.53-.37,0-.67-.1-.91-.3s-.37-.47-.42-.8Z"/>
              <path class="cls-2" d="M247.8,25.21l-.76.14c-.03-.15-.08-.26-.17-.34s-.21-.12-.35-.12c-.19,0-.34.07-.46.2-.11.13-.17.35-.17.66,0,.35.06.59.17.73.12.14.27.21.47.21.15,0,.26-.04.36-.13.09-.08.16-.23.2-.43l.75.13c-.08.35-.23.61-.45.78s-.52.27-.89.27c-.43,0-.76-.13-1.02-.4-.25-.27-.38-.64-.38-1.11s.13-.85.38-1.12c.25-.27.6-.4,1.03-.4.35,0,.64.08.84.23.21.15.36.38.45.7Z"/>
              <path class="cls-2" d="M248.33,24.35h.71v.4c.25-.31.55-.46.9-.46.19,0,.35.04.48.12s.25.19.34.35c.13-.15.27-.27.41-.35s.31-.12.47-.12c.21,0,.39.04.54.13.15.09.26.21.33.38.05.12.08.32.08.6v1.86h-.77v-1.66c0-.29-.03-.47-.08-.56-.07-.11-.18-.16-.33-.16-.11,0-.21.03-.3.1-.09.07-.16.16-.21.29-.04.13-.06.33-.06.6v1.39h-.77v-1.59c0-.28-.01-.47-.04-.55s-.07-.14-.13-.18-.13-.06-.23-.06c-.12,0-.23.03-.32.1s-.16.16-.2.28c-.04.12-.06.32-.06.6v1.41h-.77v-2.9Z"/>
            </g>
          </g>
        </g>
      </g>
      <g id="symbol_11" data-name="symbol 11">
        <g>
          <g>
            <path class="cls-1" d="M46.6.9h32.44c1.56,0,2.82,1.26,2.82,2.82v32.44c0,1.56-1.26,2.82-2.82,2.82h-32.44c-1.56,0-2.82-1.26-2.82-2.82V3.72c0-1.56,1.26-2.82,2.82-2.82Z"/>
            <path d="M79.04,39.6h-32.44c-1.9,0-3.44-1.54-3.44-3.44V3.72c0-1.9,1.54-3.44,3.44-3.44h32.44c1.9,0,3.44,1.54,3.44,3.44v32.44c0,1.9-1.54,3.44-3.44,3.44ZM46.6,1.52c-1.21,0-2.2.99-2.2,2.2v32.44c0,1.21.99,2.2,2.2,2.2h32.44c1.21,0,2.2-.99,2.2-2.2V3.72c0-1.21-.99-2.2-2.2-2.2h-32.44Z"/>
          </g>
          <g>
            <g>
              <g>
                <rect class="cls-1" x="50.15" y="17.84" width="8.89" height="18.01"/>
                <path d="M59.65,36.47h-10.12v-19.25h10.12v19.25ZM50.76,35.24h7.65v-16.77h-7.65v16.77Z"/>
              </g>
              <path d="M54.88,6.18s-.66,4.07-2.83,6.74c-1.61,1.97.32,4.3,2.42,4.31,2.98,0,4.05-2.5,2.88-4.3-1.14-1.75-2.7-4.18-2.47-6.74Z"/>
            </g>
            <g>
              <rect x="53.66" y="16.38" width="1.86" height="20.95" transform="translate(-3 46.46) rotate(-45)"/>
              <rect x="44.12" y="25.92" width="20.95" height="1.86" transform="translate(-3 46.47) rotate(-45)"/>
            </g>
          </g>
          <g>
            <g>
              <path class="cls-1" d="M77.72,12.35c.06-.55.05-1.09-.06-1.59-2.4-10.22-14-8.73-15.32.9-.03.25-.05.51-.04.76-.01,0-.02,0-.03,0-.32.05-.59.63-.59,1.08,0,1.25,1.16,3.24,1.67,2.64.67,1.37,1.46,2.43,1.7,2.69.99,1.1,2.84,3.17,5.29,2.98,2.08-.16,3.42-1.85,4.56-3.3.28-.36.99-1.36,1.62-2.62.45,1.01,1.76-1.16,1.76-2.49,0-.44-.26-1.02-.57-1.08Z"/>
              <path class="cls-3" d="M70.03,21.88c-2.31,0-4.05-1.94-5-3-.26-.29-1.04-1.35-1.68-2.66-.09.09-.21.11-.35.06-.59-.22-1.34-1.76-1.34-2.75,0-.46.27-1.06.61-1.11,0,0,0,0,0,0,0-.26,0-.51.04-.74.32-2.34,1.26-4.33,2.73-5.77,1.34-1.32,3.06-2.09,4.83-2.17,1.72-.08,3.35.47,4.7,1.59,1.49,1.23,2.56,3.11,3.11,5.44.11.47.13.99.07,1.57.32.09.57.67.57,1.1,0,1.04-.82,2.64-1.41,2.77-.11.02-.27,0-.39-.22-.63,1.23-1.32,2.22-1.6,2.57-1.17,1.48-2.49,3.15-4.58,3.31-.1,0-.21.01-.31.01ZM63.36,16.12l.02.04c.65,1.32,1.43,2.4,1.69,2.69.99,1.1,2.83,3.16,5.26,2.97,2.07-.16,3.38-1.82,4.54-3.29.28-.36.99-1.37,1.62-2.61l.03-.05.02.05c.08.19.2.27.35.24.56-.12,1.36-1.72,1.36-2.72,0-.42-.25-.99-.55-1.05h-.02s0-.03,0-.03c.07-.58.05-1.11-.06-1.58-1.21-5.17-4.58-7-7.44-7-.11,0-.21,0-.32,0-3.22.15-6.8,2.65-7.51,7.89-.03.24-.05.5-.04.76v.02s-.05,0-.05,0c-.3.04-.56.62-.56,1.06,0,1.05.78,2.5,1.31,2.7.13.05.23.02.32-.08l.03-.03Z"/>
            </g>
            <path d="M71.88,9.68c.21.65.42,1.29.63,1.95.08-.81.16-1.61.23-2.42.25.71.5,1.41.74,2.12.01-.39.03-.77.04-1.16.28.79.56,1.59.83,2.38l.23-2.57c.37,1.05.75,2.1,1.12,3.15.35-.83.35-1.81,0-2.65.52,1.42,1.22,2.89,1.27,4.61.36-.72.85-1.65.9-2.3.26.59.06,1.16.33,1.75.65-1.81.33-3.94-.82-5.49.33.44.65.89.98,1.33-.64-2.58-2.38-4.87-4.7-6.17.31.13,1.22.45,1.54.58-.36-.36-1.96-1.19-2.21-1.27-1.24-.37-2.14-.41-3.43-.5-1.29-.09-2.58.19-3.66.9-1.37.91-1.97,2.2-3.42,2.97l1.18-.33c-1.37,1.46-2.99,3.55-2.54,6.12.26-.44,1.06-2.55.89-2.07-.59,1.66-.73,3.45,1.35,5.62,0,0-.7-3.46.09-4.34.1.55.49,1.3.59,1.85.32-1.1-.16-2.1.16-3.21.19.69.38,1.39.57,2.08.92-1.29,1.58-2.77,1.91-4.31.08.49.16.98.24,1.48.16-.43.33-.85.49-1.28.39,1.16.41,2.45.06,3.63.34-1.13.68-2.26,1.03-3.39-.07.81-.14,1.62-.22,2.43.55-1.16,1.1-2.33,1.65-3.49-.08,1.27-.16,2.55-.25,3.82.01-.22.16-.49.23-.7.08-.24.16-.48.24-.72.16-.48.29-.97.47-1.44.04.29.09.58.12.87.02.2.11.96.27,1.06.2.12.63-.36.86-.9Z"/>
            <path d="M67.33,13.44c0,.36-.29.66-.66.66s-.66-.29-.66-.66.29-.66.66-.66.66.29.66.66Z"/>
            <path d="M73.48,13.44c0,.36-.29.66-.66.66s-.66-.29-.66-.66.29-.66.66-.66.66.29.66.66Z"/>
            <path d="M69.83,19.44c-.47,0-.96-.26-1.62-.86l.06-.07c1.36,1.24,1.96.99,3.19,0l.06.07c-.66.53-1.16.86-1.69.86Z"/>
            <path d="M69.61,15.81c-.24,0-.48-.08-.65-.25l.06-.06c.3.3.84.31,1.15.02l.06.07c-.17.16-.4.23-.63.23Z"/>
          </g>
          <g>
            <g>
              <path class="cls-1" d="M74.96,36.12c-.4.6-.45.75-1.55.63-1.06-.25-3.39.81-3.08-.88-.82-.24-.34.77-1.3.75-.49-.02-1.18.13-1.42-.37-.12-.58-.55-1,.31-1.67.11-.31.28-1.22.17-1.79-.46-1.06-1.3-1.66-1.51-2.81-.23-.69.84-1.89-.33-1.97-.61-.23-1.12-1.11-.7-1.63.35-.61.52-1.45,1.32-1.69-.11-.26-.24-.62,0-.82.7-.4,3.82,1.8,3.42,2.8.19,1.25.73,1.08,1.81,1.16,1.39.29,2.56,2.37,3.1,3.61.15.63.24,1.24.29,1.83.24-.37.38-.75.43-1.16-.1-1.45-1.47-2.52-1.89-3.91-.41-.95-.41-3.27,1.02-2.4.24.2.36.48.31.75-.22,1.88,1.93,3.22,2.08,4.96.51,2.07-1,3.5-2.47,4.61Z"/>
              <path d="M71.24,37.05c-.38,0-.7-.07-.91-.29-.16-.17-.23-.42-.2-.73h0c-.1,0-.13.07-.2.21-.11.24-.27.59-.89.57-.09,0-.19,0-.3,0-.47.01-1.05.03-1.29-.49v-.04c-.04-.11-.07-.22-.11-.33-.14-.42-.31-.9.43-1.5.11-.35.24-1.14.15-1.62-.18-.41-.42-.75-.66-1.08-.35-.5-.72-1.02-.85-1.73-.1-.32,0-.67.11-1.01.08-.27.17-.57.08-.69-.06-.08-.22-.11-.34-.12h-.03s-.03-.01-.03-.01c-.43-.16-.82-.6-.94-1.06-.09-.33-.03-.63.15-.86.08-.14.14-.28.22-.44.22-.47.46-1,1.02-1.26-.09-.26-.15-.62.14-.86l.03-.02c.56-.32,1.91.5,2.7,1.18.47.41,1.21,1.18,1.02,1.8.15.87.42.89,1.2.93.13,0,.27.01.42.03h.02c1.59.33,2.79,2.71,3.24,3.72v.03c.11.41.18.8.23,1.18.05-.15.09-.31.11-.47-.06-.76-.49-1.42-.95-2.11-.36-.54-.73-1.1-.92-1.73-.28-.66-.43-2.16.17-2.68.2-.17.56-.31,1.14.04l.02.02c.3.24.44.6.38.94-.11.94.44,1.75,1.02,2.61.49.72.99,1.45,1.06,2.29.52,2.15-.98,3.62-2.52,4.77l-.03.04c-.4.6-.56.77-1.68.65h-.02c-.31-.08-.77-.02-1.22.03-.32.04-.63.07-.91.07ZM70.12,35.65c.08,0,.17.01.28.04l.17.05-.03.17c-.05.28-.02.47.08.58.23.25.9.17,1.49.1.48-.06.97-.11,1.35-.03.92.1.97.03,1.31-.48l.06-.1.03-.02c1.46-1.09,2.88-2.46,2.4-4.4v-.03c-.07-.74-.52-1.41-1-2.12-.59-.88-1.21-1.78-1.08-2.88.04-.21-.05-.42-.23-.57-.3-.18-.52-.2-.67-.07-.38.33-.35,1.56-.06,2.24v.02c.18.58.54,1.12.88,1.64.47.71.96,1.44,1.02,2.32v.02s0,.02,0,.02c-.06.44-.21.85-.46,1.25l-.32.49-.04-.58c-.04-.58-.13-1.17-.28-1.79-.33-.76-1.5-3.17-2.94-3.48-.14-.01-.28-.02-.4-.02-.8-.04-1.38-.07-1.57-1.3v-.05s.01-.05.01-.05c.12-.29-.23-.84-.89-1.42-.95-.83-1.98-1.25-2.23-1.14-.1.1-.05.31.06.58l.08.2-.21.06c-.53.16-.74.63-.97,1.12-.07.16-.15.33-.24.48l-.02.03c-.14.17-.12.38-.09.53.09.33.37.66.68.78.29.03.49.12.6.28.19.28.08.65-.03,1.02-.09.29-.17.59-.11.79v.03c.12.64.45,1.1.79,1.59.25.35.51.72.71,1.17v.04c.14.61-.04,1.55-.16,1.89l-.02.05-.05.04c-.57.45-.49.7-.35,1.11.04.11.07.22.1.35.13.25.45.26.92.25.11,0,.22,0,.32,0,.36.01.43-.14.53-.35.08-.18.2-.43.55-.43Z"/>
            </g>
            <path d="M67.51,25.85c0,.18-.16.33-.35.33s-.35-.15-.35-.33.16-.33.35-.33.35.15.35.33Z"/>
          </g>
        </g>
      </g>
      <g id="symbol_7" data-name="symbol 7">
        <g>
          <g>
            <path class="cls-1" d="M177.57,1.3h32.44c1.56,0,2.82,1.26,2.82,2.82v32.44c0,1.56-1.26,2.82-2.82,2.82h-32.44c-1.56,0-2.82-1.26-2.82-2.82V4.12c0-1.56,1.26-2.82,2.82-2.82Z"/>
            <path d="M210,40h-32.44c-1.9,0-3.44-1.54-3.44-3.44V4.12c0-1.9,1.54-3.44,3.44-3.44h32.44c1.9,0,3.44,1.54,3.44,3.44v32.44c0,1.9-1.54,3.44-3.44,3.44ZM177.57,1.92c-1.21,0-2.2.99-2.2,2.2v32.44c0,1.21.99,2.2,2.2,2.2h32.44c1.21,0,2.2-.99,2.2-2.2V4.12c0-1.21-.99-2.2-2.2-2.2h-32.44Z"/>
          </g>
          <g>
            <g>
              <g>
                <path class="cls-1" d="M211.9,29.91s.14,7.53,0,8.14c-.14.61-1.26.71-2.11.71h-16.59v-8.85c0-1.22,4.19-2.21,9.35-2.21s9.35.99,9.35,2.21Z"/>
                <path d="M209.78,39.26h-17.1v-9.36c0-2.15,6.45-2.72,9.86-2.72s9.85.57,9.86,2.71c.03,1.78.13,7.63-.01,8.25-.22.99-1.6,1.11-2.61,1.11ZM193.7,38.25h16.08c1.46,0,1.62-.31,1.62-.31.09-.47.04-5.17-.01-8.02h0c0-.11-.42-.62-2.35-1.08-1.73-.41-4.04-.63-6.5-.63s-4.77.23-6.5.63c-1.93.46-2.35.97-2.35,1.07v8.34Z"/>
              </g>
              <g>
                <path class="cls-1" d="M211.9,29.91c0,1.22-4.19,2.21-9.35,2.21s-9.35-.99-9.35-2.21,4.19-2.21,9.35-2.21,9.35.99,9.35,2.21Z"/>
                <path d="M202.54,32.62c-3.41,0-9.86-.57-9.86-2.72s6.45-2.72,9.86-2.72,9.86.57,9.86,2.72-6.45,2.72-9.86,2.72ZM202.54,28.2c-2.46,0-4.77.23-6.5.63-1.93.46-2.35.97-2.35,1.07s.42.61,2.35,1.07c1.73.41,4.04.63,6.5.63s4.77-.22,6.5-.63c1.93-.46,2.35-.97,2.35-1.07s-.42-.61-2.35-1.07c-1.73-.41-4.04-.63-6.5-.63Z"/>
              </g>
            </g>
            <path d="M203.26,9.29s-1.21,7.45-5.21,12.35c-2.96,3.62.59,7.89,4.46,7.89,5.49,0,7.45-4.58,5.3-7.88-2.09-3.21-4.97-7.66-4.55-12.36Z"/>
          </g>
          <g>
            <g>
              <rect x="185.38" y="4.38" width="1.75" height="19.75" transform="translate(44.48 135.88) rotate(-45)"/>
              <rect x="176.38" y="13.38" width="19.75" height="1.75" transform="translate(44.48 135.88) rotate(-45)"/>
            </g>
            <path d="M176.98,11.1c.52.57,2.83-.13,8.5,2.8,1.61.83,5.53,1.45,6.26,2.71.5.85.47,1.45,1.23,1.84,1.16.6,2.61.28,2.73-.52.15-1.01-.78-1.25-2.33-2.01-2.75-1.35-4.77-2.05-7.02-2.9-5.93-2.23-7.43-3.49-8.82-3.27-.58.09-1.02.84-.56,1.34Z"/>
          </g>
          <g>
            <rect x="190.36" y="17.91" width=".99" height="11.22" transform="translate(34.81 135.9) rotate(-42.79)"/>
            <polygon points="192.37 28.79 197.08 30.24 195.99 25.44 192.37 28.79"/>
          </g>
        </g>
      </g>
      <g id="symbol_6" data-name="symbol 6">
        <g>
          <path class="cls-1" d="M264.94.95h32.44c1.56,0,2.82,1.26,2.82,2.82v32.44c0,1.56-1.26,2.82-2.82,2.82h-32.44c-1.56,0-2.82-1.26-2.82-2.82V3.77c0-1.56,1.26-2.82,2.82-2.82Z"/>
          <g>
            <path class="cls-1" d="M288.28,21.1c-.3-.02-.38.02-.57.1-.25.1-.84.38-1.03.3,0-.02-.02-.5.06-.9.83-.19,1.72-.7,2.04-1.17.26-.38.28-.68.27-.82-.07-.7-.48-1.08-1.2-.96-.17.03-.85.2-1.1.22-.08-.38.11-.44.13-.45,1.84-1.07.57-2.56-.08-2.08s-2.95,3.56-6.19,3.49c-.21.12.16,2.47-.13,3.96-.11,3.84-.57,7.75-.48,7.51.09-.25,6.11-2.89,6.58-2.89s1.01-.53,1.32-.93c.11-.14.26-.38.29-.6.07-.46.07-1.24-.62-1.18-.69.06-.84.09-.84.09,0,0-.09-.26-.09-.49.23,0,1.56-.58,2.01-1.22.15-.21.24-.41.28-.6.17-.7-.34-1.33-.65-1.35Z"/>
            <path d="M280.18,30.65l-.27-.05c-.27-.06-.26-.29-.23-.64.01-.2.04-.49.07-.85.12-1.36.33-3.89.4-6.34v-.05c.16-.8.12-1.89.08-2.7-.04-1.02-.05-1.32.2-1.47l.07-.04h.09c2.5.06,4.41-1.86,5.43-2.89.25-.25.43-.44.58-.54.24-.18.56-.2.86-.06.39.19.65.6.67,1.06.01.3-.08.84-.74,1.35.04,0,.07-.02.1-.02.13-.03.24-.05.29-.06.52-.09.86.06,1.05.2.28.21.46.57.51,1.02.02.14.01.53-.32,1.02-.33.5-1.16,1.01-2.02,1.25-.01.1-.02.21-.02.3.16-.05.35-.13.44-.17.06-.03.12-.05.16-.07l.04-.02c.19-.08.33-.12.66-.1.22.02.46.17.66.43.28.38.38.85.27,1.29-.06.24-.17.48-.33.71-.33.47-1.09.93-1.66,1.17.09,0,.19-.02.3-.03.37-.03.59.12.71.25.33.36.29.96.24,1.29-.05.34-.29.65-.36.74-.31.39-.92,1.04-1.56,1.04-.51.06-5.69,2.33-6.32,2.76l-.07.18ZM280.77,22.81c-.07,2.46-.29,4.99-.41,6.35-.02.2-.03.39-.05.56.46-.24,1.26-.62,2.69-1.25.94-.42,3.18-1.38,3.56-1.38.26,0,.69-.33,1.08-.81.1-.12.21-.31.23-.45.06-.35.02-.66-.08-.77-.02-.02-.06-.07-.21-.05-.65.06-.81.08-.82.08l-.26.04-.09-.25s-.11-.31-.11-.59v-.31h.31c.21-.03,1.38-.55,1.76-1.09.12-.16.19-.33.23-.5.08-.34-.06-.62-.12-.72-.1-.16-.21-.24-.25-.25-.21-.01-.25,0-.39.06l-.05.02s-.09.04-.15.06c-.49.2-.85.34-1.11.23l-.19-.08v-.21c0-.17,0-.59.07-.96l.04-.2.19-.04c.75-.17,1.58-.64,1.85-1.04.23-.35.22-.57.22-.62-.02-.2-.08-.46-.27-.6-.13-.1-.33-.13-.57-.09-.05,0-.15.03-.26.06-.37.08-.69.15-.87.16l-.27.02-.05-.26c-.11-.54.17-.73.28-.79.52-.31.8-.67.79-1.03,0-.26-.17-.45-.32-.52-.06-.03-.15-.05-.22,0-.1.07-.29.26-.5.48-.98.99-2.99,3.01-5.63,3.07,0,.21,0,.57.02.87.03.82.08,1.95-.08,2.81Z"/>
          </g>
          <g>
            <g>
              <rect class="cls-1" x="275.7" y="15.44" width="10.66" height="18.95"/>
              <path d="M287.06,35.08h-12.05V14.74h12.05v20.34ZM276.4,33.69h9.27v-17.56h-9.27v17.56Z"/>
            </g>
            <path d="M281.44,3.29s-.79,4.25-3.4,7.04c-1.93,2.06.39,4.5,2.91,4.5,3.58,0,4.85-2.61,3.45-4.5-1.36-1.83-3.24-4.37-2.96-7.05Z"/>
          </g>
          <g>
            <path class="cls-1" d="M275.48,22.72c-.07,3.14-.29,9.09.02,12.05-1.63.58-2.45.35-3.11.73-.29.17-4.32,1.76-7.26,3.2-1.39.68-3.01-.33-3.01-1.87,0-2.47,0-5.24,0-5.24,1.87-.88,2.75-1.99,4.21-3.2,1.21-1,4.02-4.87,5.12-6.26.34-.43.88-.89,1.18-1.71.3-.82.84-1.92,1.02-2.89.1-.53.49-2.41.37-2.88-.12-.47.43-.61.66-.61.47,0,.97.56,1.15,1.02.2.51.67,2.89-.35,6.35,0,.3-.01.97-.01,1.33Z"/>
            <path d="M264.21,39.22c-.44,0-.88-.12-1.27-.37-.7-.44-1.12-1.2-1.12-2.03,0-2.47,0-5.24,0-5.24v-.2s.18-.08.18-.08c1.32-.62,2.11-1.34,3.03-2.18.35-.32.71-.64,1.12-.98.92-.76,2.86-3.31,4.14-4.99.37-.49.69-.91.94-1.22.09-.11.18-.22.28-.33.3-.34.64-.73.85-1.3.09-.25.2-.51.32-.79.27-.65.57-1.39.7-2.05.01-.06.03-.15.05-.25.1-.53.42-2.16.33-2.5-.07-.3.03-.51.12-.63.23-.29.63-.37.84-.37.66,0,1.24.71,1.44,1.21.25.64.68,3.06-.33,6.5,0,.14,0,.34,0,.54,0,.27,0,.55,0,.74h0s0,0,0,0c-.01.48-.02,1.03-.04,1.63-.08,3.34-.2,7.9.06,10.39l.03.24-.23.08c-.89.32-1.54.4-2.06.46-.43.05-.74.09-1,.24-.11.06-.48.22-1.32.57-1.49.62-3.98,1.67-5.96,2.64-.34.16-.7.25-1.06.25ZM262.44,31.78c0,.67,0,2.97,0,5.05,0,.62.31,1.18.83,1.51.53.33,1.17.36,1.73.09,2-.98,4.5-2.03,6-2.65.63-.26,1.17-.49,1.25-.54.37-.21.77-.26,1.23-.32.45-.06.99-.12,1.7-.36-.23-2.57-.12-6.97-.04-10.22.02-.59.03-1.14.04-1.62,0-.19,0-.48,0-.75,0-.23,0-.44,0-.58v-.09c.99-3.29.59-5.6.37-6.15-.15-.37-.56-.82-.87-.82-.12,0-.29.06-.35.13,0,.01-.03.03,0,.1.1.4-.06,1.39-.32,2.77-.02.1-.03.18-.05.24-.13.72-.45,1.49-.73,2.17-.11.28-.22.54-.31.77-.25.68-.65,1.13-.97,1.5-.09.11-.18.21-.26.3-.24.3-.56.72-.93,1.21-1.38,1.81-3.26,4.29-4.23,5.1-.4.33-.75.65-1.1.96-.88.8-1.71,1.55-3,2.19Z"/>
          </g>
          <path d="M273.79,16c.35,0,1.29-1.16,1.24-1.87-.04-.71-.71-1.07-1.11-1.2-.4-.13-.13,3.07-.13,3.07Z"/>
          <path d="M273.25,29.8c-1.31,0-3.15-.59-4.49-2.25l.05-.04c1.36,1.68,3.23,2.25,4.53,2.22.91-.02,1.63-.31,2-.81l.05.04c-.38.51-1.12.81-2.05.83-.03,0-.06,0-.09,0Z"/>
          <path d="M271.49,23.95v-.06c.99-.08,2.83-.42,3.52-1.01l.04.05c-.71.6-2.52.94-3.56,1.02Z"/>
          <path d="M271.7,35.58l-.05-.04c.63-.93-.1-3.23-.58-4.31-.29-.66-.6-.86-.99-1.11-.32-.21-.72-.46-1.21-1.05l.05-.04c.49.59.87.83,1.2,1.04.4.25.71.45,1.01,1.14.48,1.09,1.22,3.42.58,4.37Z"/>
          <path d="M269.89,31.98c-.57-.14-1.8-1.47-2.62-2.36-.28-.3-.5-.54-.62-.65l.04-.05c.12.11.34.35.62.65.76.83,2.03,2.21,2.59,2.34v.06Z"/>
          <path d="M270.19,31.6c-.25-.72-1.58-2.03-2.3-2.73-.1-.1-.19-.19-.26-.26l.04-.04c.07.07.16.16.26.26.72.71,2.06,2.02,2.31,2.76l-.06.02Z"/>
          <path d="M274.25,17.87s-.1,0-.16,0c-.12,0-.27-.01-.49,0v-.05c.22-.01.37,0,.49,0,.19,0,.31.02.55-.07l.02.05c-.18.06-.29.08-.41.08Z"/>
          <path d="M273.89,18.38s-.06,0-.09-.01c-.06-.01-.14-.03-.3-.03v-.05c.17,0,.25.02.31.03.09.02.11.02.33-.06l.02.05c-.15.06-.21.08-.27.08Z"/>
          <path d="M273.53,21.99c-.2,0-.38-.02-.51-.06l.02-.06c.5.17,2.02-.04,2.45-.6l.05.04c-.33.44-1.32.69-2.01.69Z"/>
          <path d="M297.38,39.65h-32.44c-1.9,0-3.44-1.54-3.44-3.44V3.77c0-1.9,1.54-3.44,3.44-3.44h32.44c1.9,0,3.44,1.54,3.44,3.44v32.44c0,1.9-1.54,3.44-3.44,3.44ZM264.94,1.57c-1.21,0-2.2.99-2.2,2.2v32.44c0,1.21.99,2.2,2.2,2.2h32.44c1.21,0,2.2-.99,2.2-2.2V3.77c0-1.21-.99-2.2-2.2-2.2h-32.44Z"/>
          <g>
            <rect x="281.25" y="3.23" width="2.02" height="34.65" transform="translate(68.13 205.61) rotate(-45)"/>
            <polygon points="270.31 32.67 268.71 31.07 293.05 7.3 294.48 8.73 270.31 32.67"/>
          </g>
        </g>
      </g>
      <g id="symbol_5" data-name="symbol 5">
        <g>
          <g>
            <path class="cls-1" d="M133.39,1.2h32.44c1.56,0,2.82,1.26,2.82,2.82v32.44c0,1.56-1.26,2.82-2.82,2.82h-32.44c-1.56,0-2.82-1.26-2.82-2.82V4.02c0-1.56,1.26-2.82,2.82-2.82Z"/>
            <path d="M165.83,39.9h-32.44c-1.9,0-3.44-1.54-3.44-3.44V4.02c0-1.9,1.54-3.44,3.44-3.44h32.44c1.9,0,3.44,1.54,3.44,3.44v32.44c0,1.9-1.54,3.44-3.44,3.44ZM133.39,1.82c-1.21,0-2.2.99-2.2,2.2v32.44c0,1.21.99,2.2,2.2,2.2h32.44c1.21,0,2.2-.99,2.2-2.2V4.02c0-1.21-.99-2.2-2.2-2.2h-32.44Z"/>
          </g>
          <g>
            <g>
              <g>
                <path class="cls-1" d="M144.81,9.87c-.13.39-1.49.33-1.75.64-1.04,1.27-.59,2.26-1.5,3.18-.17.18-1.07.3-1.25.46-.09.08-.13.8-.22.88-2.05,1.69-4.71,2-7.24,1.42-.72-.16-1.39-.42-2.01-.77-.09-.05-.18-.1-.26-.15V4.02c0-1.56,1.26-2.82,2.82-2.82h9.95c.18.44.33.91.46,1.38.45,1.73.49,3.65.05,5.6-.09.41,1.1,1.3.97,1.69Z"/>
                <path d="M135.14,16.88c-.75,0-1.53-.09-2.33-.27-.72-.16-1.41-.43-2.05-.79-.09-.05-.18-.1-.27-.16l-.08-.05V4.02c0-1.64,1.34-2.98,2.98-2.98h10.05l.04.1c.18.45.34.92.46,1.4.46,1.81.48,3.77.05,5.67-.03.13.26.48.46.71.32.39.6.72.51,1-.1.3-.56.38-1.04.47-.27.05-.65.12-.73.22-.51.62-.64,1.16-.78,1.69-.13.53-.26,1.02-.73,1.51-.11.11-.35.18-.72.29-.18.05-.45.12-.53.17-.02.06-.05.23-.07.35-.05.33-.08.47-.17.54-1.38,1.14-3.13,1.72-5.05,1.72ZM130.73,15.45c.06.04.12.07.18.1.62.34,1.28.6,1.97.76,2.73.62,5.25.13,7.09-1.38.02-.06.05-.24.07-.36.05-.33.08-.46.16-.53.11-.09.32-.16.66-.25.19-.05.52-.14.58-.2.42-.42.53-.86.65-1.36.13-.53.28-1.14.84-1.81.15-.19.51-.25.92-.33.29-.05.76-.14.8-.27.04-.11-.27-.48-.45-.7-.31-.38-.59-.7-.52-.98.42-1.86.41-3.77-.05-5.53-.11-.43-.25-.86-.41-1.27h-9.84c-1.47,0-2.66,1.19-2.66,2.66v11.43ZM139.99,14.92s0,0,0,0h0ZM140.42,14.28s0,0,0,0c0,0,0,0,0,0Z"/>
              </g>
              <path d="M147.27,2.51c-.42.74-1.83.34-3.47.07-1.58-.26-3.37-.41-4.69.66-2.61,2.11-4.83,3.64-4.68,7.85.1,2.71-1.51,4.13-3.59,4.6-.09.02-.18.04-.26.05V4.02c0-1.56,1.26-2.82,2.82-2.82h13.76c.24.53.3.99.11,1.31Z"/>
              <path d="M140.07,5.84c-.13.56.22,1.12.78,1.25.56.13,1.12-.22,1.25-.78.13-.56-.22-1.12-.78-1.25-.56-.13-1.12.22-1.25.78Z"/>
            </g>
            <path d="M147.74,18.59c-2.25-1.32-5.14-1.82-6.8-3.99-.07-.09-.22,0-.15.09,1.28,1.67,3.31,2.39,5.16,3.21.58.26,1.15.53,1.7.85.1.06.18-.09.09-.15h0Z"/>
            <path d="M140.57,15.15c1.14,1.75,2.76,3.17,4.65,4.07.1.05.19-.1.09-.15-1.86-.89-3.46-2.28-4.59-4-.06-.09-.21,0-.15.09h0Z"/>
            <path d="M141.28,14.64c2.09,1.04,4.3,1.82,6.58,2.32.66.14,1.32.26,1.98.36.11.02.15-.15.05-.17-2.29-.33-4.54-.94-6.68-1.82-.62-.26-1.24-.54-1.84-.84-.1-.05-.19.1-.09.15h0Z"/>
          </g>
          <g>
            <g>
              <g>
                <polygon points="166.49 11.21 157.63 5.75 163.94 2.57 166.68 4.33 166.49 11.21"/>
                <path d="M166.52,11.26l-8.96-5.51.05-.02,6.33-3.18h.01s2.75,1.78,2.75,1.78l-.19,6.95ZM157.69,5.75l8.77,5.4.19-6.8-2.71-1.74-6.25,3.14Z"/>
              </g>
              <g>
                <path class="cls-1" d="M166.42,11.51c-.44.72-2.83.06-5.32-1.47-2.49-1.54-4.15-3.37-3.71-4.09.44-.72,2.83-.06,5.32,1.47,2.49,1.54,4.15,3.37,3.71,4.09Z"/>
                <path d="M165.65,11.82c-1,0-2.76-.65-4.57-1.76-2.5-1.54-4.17-3.39-3.72-4.12.22-.36.9-.4,1.92-.12,1.01.28,2.23.84,3.43,1.59,2.5,1.54,4.17,3.39,3.72,4.12h0c-.13.2-.4.3-.79.3ZM158.15,5.68c-.37,0-.63.09-.75.28-.44.71,1.22,2.53,3.7,4.06,2.48,1.53,4.85,2.19,5.29,1.48h0c.44-.71-1.22-2.53-3.7-4.06-1.2-.74-2.42-1.3-3.42-1.58-.44-.12-.82-.18-1.12-.18Z"/>
              </g>
              <polygon points="168.97 5.73 168.97 7.22 166.64 5.76 163.28 3.65 163.94 2.57 168.97 5.73"/>
            </g>
            <g>
              <g>
                <rect class="cls-1" x="155.97" y="12.63" width="6.84" height="12.49"/>
                <path d="M163.26,25.57h-7.74v-13.4h7.74v13.4ZM156.43,24.67h5.93v-11.59h-5.93v11.59Z"/>
              </g>
              <path d="M162.47,10.14c.21,1.48-2.44,2.87-4.51,1.97-1.46-.63-.63-2.19.53-2.96.88-.59,2.39-1.36,3.78-2.03.1.06.2.12.3.18.26.16.51.33.76.49-.63.8-.97,1.57-.86,2.34Z"/>
            </g>
          </g>
          <g>
            <g>
              <g>
                <rect class="cls-1" x="142.32" y="24.4" width="6.84" height="12.49"/>
                <path d="M149.61,37.35h-7.74v-13.4h7.74v13.4ZM142.77,36.44h5.93v-11.59h-5.93v11.59Z"/>
              </g>
              <path d="M151.87,17.41s-5.06,2.2-7.03,3.52c-1.16.77-1.99,2.33-.53,2.96,2.07.9,4.72-.5,4.51-1.97-.21-1.44,1.13-2.85,3.05-4.5Z"/>
            </g>
            <g>
              <rect x="145.48" y="12.54" width="1.04" height="11.74" transform="translate(23.99 100.68) rotate(-41.18)"/>
              <rect x="140.12" y="17.89" width="11.74" height="1.04" transform="translate(36.01 116.17) rotate(-48.82)"/>
            </g>
          </g>
        </g>
      </g>
      <g id="Symbol_3" data-name="Symbol 3">
        <g>
          <g>
            <rect class="cls-1" x="87.22" y="1.25" width="38.08" height="38.08" rx="2.82" ry="2.82"/>
            <path d="M122.48,39.95h-32.44c-1.9,0-3.44-1.54-3.44-3.44V4.07c0-1.9,1.54-3.44,3.44-3.44h32.44c1.9,0,3.44,1.54,3.44,3.44v32.44c0,1.9-1.54,3.44-3.44,3.44ZM90.04,1.87c-1.21,0-2.2.99-2.2,2.2v32.44c0,1.21.99,2.2,2.2,2.2h32.44c1.21,0,2.2-.99,2.2-2.2V4.07c0-1.21-.99-2.2-2.2-2.2h-32.44Z"/>
          </g>
          <g>
            <g>
              <rect x="104.82" y="10.79" width="1.32" height="14.94" transform="translate(17.98 79.93) rotate(-45)"/>
              <rect x="98.01" y="17.6" width="14.94" height="1.32" transform="translate(17.98 79.93) rotate(-45)"/>
            </g>
            <path d="M114.36,29.7h-17.76V7.01h17.76v22.69ZM97.37,28.92h16.21V7.79h-16.21v21.14Z"/>
            <path d="M112.51,27.62h-14.14V8.9h14.14v18.72ZM99.37,26.62h12.15V9.9h-12.15v16.73Z"/>
            <path d="M89.01,30.66V5.61l10.36,3.38.08,18.45-10.44,3.21ZM90.15,7.19v21.91l8.14-2.5-.07-16.77-8.07-2.63Z"/>
            <g>
              <g>
                <rect class="cls-1" x="115.63" y="23.58" width="5.23" height="10.6"/>
                <path d="M121.22,34.55h-5.96v-11.33h5.96v11.33ZM116,33.82h4.5v-9.87h-4.5v9.87Z"/>
              </g>
              <path d="M122.93,17.65s-3.87,1.87-5.38,2.98c-.89.66-1.52,1.98-.41,2.51,1.58.76,3.61-.42,3.45-1.68-.16-1.22.87-2.42,2.33-3.82Z"/>
            </g>
            <path d="M98.48,16.66c.46-1.02,1.39-1.76,2.43-2.13,1.81-.67,3.82-.81,5.71-.39,1.37.23,2.62.97,3.83,1.5.98.41,2.01.67,3.07.77,2.12.21,4.27-.1,6.32-.68,1.04-.29,2.06-.66,3.07-1.05l.03.06c-2.82,1.7-6.19,2.78-9.5,2.34-1.11-.16-2.2-.47-3.21-.94-1.26-.59-2.36-1.31-3.7-1.59-1.83-.46-3.75-.4-5.55.18-1.01.32-1.94,1-2.44,1.96l-.06-.03h0Z"/>
            <path d="M98.49,18.87c.85-2.03,3.24-2.64,5.25-2.76,1.05-.03,2.09.14,3.1.43,1.02.32,1.91.88,2.82,1.3,2.76,1.28,5.96.97,8.8.11.97-.3,1.92-.66,2.87-1.06l.03.06c-2.6,1.68-5.79,2.78-8.92,2.32-1.05-.16-2.07-.48-3.01-.96-.94-.47-1.79-1.04-2.72-1.37-1.91-.65-4.02-.69-5.93,0-.94.33-1.78,1.02-2.22,1.95l-.06-.03h0Z"/>
            <path d="M98.49,21.25c.35-.9,1.06-1.66,1.94-2.06,1.8-.83,3.8-.89,5.68-.27.94.32,1.75.87,2.58,1.29.82.42,1.71.69,2.62.8,1.85.23,3.7-.09,5.46-.68.89-.3,1.76-.66,2.63-1.06l.03.05c-3.18,2.27-7.42,3.37-10.98,1.33-.85-.47-1.62-1.03-2.48-1.35-.87-.3-1.81-.5-2.73-.49-.93,0-1.87.2-2.74.54-.43.18-.83.44-1.16.77-.33.33-.6.72-.79,1.15l-.06-.02h0Z"/>
          </g>
        </g>
      </g>
      <g id="symbol_1" data-name="symbol 1">
        <g id="Symbol1">
          <g>
            <rect class="cls-1" x=".62" y=".62" width="38.08" height="38.08" rx="2.82" ry="2.82"/>
            <path d="M35.88,39.32H3.44c-1.9,0-3.44-1.54-3.44-3.44V3.44C0,1.54,1.54,0,3.44,0h32.44c1.9,0,3.44,1.54,3.44,3.44v32.44c0,1.9-1.54,3.44-3.44,3.44ZM3.44,1.24c-1.21,0-2.2.99-2.2,2.2v32.44c0,1.21.99,2.2,2.2,2.2h32.44c1.21,0,2.2-.99,2.2-2.2V3.44c0-1.21-.99-2.2-2.2-2.2H3.44Z"/>
          </g>
          <g>
            <polygon points="34.3 36.14 19.51 32.72 19.51 .95 34.31 .95 34.3 36.14"/>
            <path d="M34.61,36.54l-15.41-3.56V.62h15.41v35.92ZM19.81,32.45l14.18,3.28V1.27s-14.18,0-14.18,0v31.18Z"/>
          </g>
          <g>
            <path class="cls-1" d="M23.2,31.84l.43.33c.46.36,1.13.27,1.48-.19l3.75-4.84c.36-.46.27-1.12-.19-1.48l-.43-.33c-.46-.36-1.13-.27-1.48.19l-3.75,4.84c-.36.46-.27,1.12.19,1.48Z"/>
            <path class="cls-1" d="M33.83,18.86v4.91s-.09-.09-.13-.15l-1.99-2.9-.37-.54c-.32-.47-.08-1.18.53-1.6l.1-.07c.61-.42,1.36-.38,1.68.09l.18.27Z"/>
            <path class="cls-1" d="M33.83,10.31v10.33c-.11.06-.25.09-.4.09l-1.72-.02-2.93-.04c-.37,0-.67-.23-.66-.5l.34-4.74-.23-4.75c0-.27.3-.48.67-.48l4.65.06c.1,0,.19.02.27.04Z"/>
            <rect class="cls-1" x="25.69" y="9.84" width="2.25" height="10.93" rx="1.02" ry="1.02" transform="translate(44.42 40.68) rotate(-154.45)"/>
            <path class="cls-1" d="M33.83,4.61v4.57c-.77.61-1.83.82-2.83.46-1.52-.55-2.3-2.23-1.74-3.74.55-1.51,2.23-2.29,3.75-1.74.3.11.58.27.82.46Z"/>
            <rect class="cls-1" x="27.28" y="19.23" width="2.66" height="8.23" rx="1.06" ry="1.06" transform="translate(50.16 53.34) rotate(-164.89)"/>
          </g>
          <g>
            <g>
              <rect class="cls-1" x="5.51" y="16.48" width="8.89" height="18.01"/>
              <path d="M15.01,35.11H4.89V15.87h10.12v19.25ZM6.12,33.88h7.65v-16.77h-7.65v16.77Z"/>
            </g>
            <path d="M10.24,4.82s-.66,4.07-2.83,6.74c-1.61,1.97.32,4.3,2.42,4.31,2.98,0,4.05-2.5,2.88-4.3-1.14-1.75-2.7-4.18-2.47-6.74Z"/>
          </g>
          <g>
            <rect x="9.21" y="16.09" width="1.86" height="20.95" transform="translate(-15.82 14.95) rotate(-45)"/>
            <rect x="-.33" y="25.64" width="20.95" height="1.86" transform="translate(-15.82 14.95) rotate(-45)"/>
          </g>
        </g>
      </g>
    </g>
  </g>
</svg>