<?xml version="1.0" encoding="UTF-8"?>
<svg id="Layer_1" xmlns="http://www.w3.org/2000/svg" width="14mm" height="17.5mm" version="1.1" viewBox="0 0 39.7 49.5">
  <!-- Generator: Adobe Illustrator 29.3.1, SVG Export Plug-In . SVG Version: 2.1.0 Build 151)  -->
  <defs>
    <style>
      .st0 {
        fill: #fff;
      }

      .st1 {
        fill: red;
      }
    </style>
  </defs>
  <g>
    <path class="st0" d="M1.4,29.7l18.5,18.5,18.5-18.5c-6.2-6.2-12.3-12.3-18.5-18.5L1.4,29.7"/>
    <path class="st1" d="M0,29.7l19.8,19.8,19.8-19.8L19.8,9.8,0,29.7ZM36.5,29.7l-16.7,16.7L3.2,29.7,19.8,13l16.7,16.7"/>
    <path d="M19.8,19.4h-.1c-.8,0-1.5.3-2.1.8-.2.2-.4.5-.4.8,0,0,0,0,0,.2s0,.2,0,.3c0,0,1.4,9.2,1.4,9.4.1.8.9,1.4,1.7,1.3.7,0,1.2-.6,1.3-1.3,0-.2,1.4-9.3,1.4-9.4,0,0,0-.1,0-.2s0-.2,0-.3c-.1-.4-.4-.8-.7-1-.6-.4-1.3-.6-2-.6h-.2,0ZM20,33.5h0c-.7,0-1.3.4-1.7,1-.3.5-.5,1.1-.4,1.6,0,.6.4,1.1.8,1.5.4.3.9.5,1.4.5.7,0,1.4-.4,1.8-1,.3-.5.5-1.1.4-1.6,0-.3-.1-.5-.2-.8-.4-.8-1.1-1.2-2-1.3"/>
  </g>
  <g>
    <path d="M12,0v4.6c0,.6-.2,1.1-.5,1.4s-.8.5-1.5.5-1.1-.2-1.5-.5c-.3-.3-.5-.8-.5-1.5V0h.8v4.6c0,.4,0,.8.3,1,.2.2.5.3.9.3s.7-.1.9-.3c.2-.2.3-.5.3-1V0h.8Z"/>
    <path d="M16.7,5.1l.7-3.4h.8l-1.2,4.8h-.6l-.9-3.4-.9,3.4h-.6l-1.2-4.8h.8l.7,3.3.9-3.3h.6l.9,3.4Z"/>
    <path d="M21.5,6.5c0-.1,0-.3-.1-.5-.3.4-.6.6-1.1.6s-.8-.1-1-.4c-.2-.2-.4-.6-.4-1s.2-.9.5-1.2c.3-.3.8-.4,1.4-.4h.6v-.5c0-.3,0-.5-.2-.6s-.3-.2-.6-.2-.4,0-.6.2c-.1.1-.2.3-.2.5h-.8c0-.2,0-.5.2-.7.1-.2.3-.4.6-.5.2-.1.5-.2.8-.2.5,0,.9.1,1.1.4.3.2.4.6.4,1.1v2.4c0,.4,0,.7.2,1h0c0,0-.8,0-.8,0ZM20.5,5.9c.2,0,.4,0,.6-.2.2-.1.3-.2.4-.4v-1.1h-.4c-.4,0-.7,0-.9.3-.2.2-.3.4-.3.7s0,.5.2.6.3.2.6.2Z"/>
    <path d="M23.3,3.9c0-.8.1-1.3.4-1.7.3-.4.7-.6,1.2-.6s.9.2,1.1.6v-.5h.8v4.9c0,.6-.2,1.1-.5,1.4-.3.3-.7.5-1.3.5s-.5,0-.8-.2c-.3-.1-.5-.3-.7-.4l.3-.5c.3.3.7.5,1.1.5.7,0,1-.4,1-1.1v-.6c-.3.4-.6.6-1.1.6s-.9-.2-1.2-.6c-.3-.4-.4-.9-.4-1.6v-.5ZM24,4.3c0,.5,0,.9.2,1.2.2.3.4.4.8.4s.7-.2.9-.6v-2.4c-.2-.4-.5-.6-.9-.6s-.6.1-.8.4c-.2.3-.2.6-.2,1.2v.5Z"/>
    <path d="M30.4,6.5c0-.1,0-.3-.1-.5-.3.4-.6.6-1.1.6s-.8-.1-1-.4c-.2-.2-.4-.6-.4-1s.2-.9.5-1.2.8-.4,1.4-.4h.6v-.5c0-.3,0-.5-.2-.6s-.3-.2-.6-.2-.4,0-.6.2c-.1.1-.2.3-.2.5h-.8c0-.2,0-.5.2-.7s.3-.4.6-.5.5-.2.8-.2c.5,0,.9.1,1.1.4.3.2.4.6.4,1.1v2.4c0,.4,0,.7.2,1h0c0,0-.8,0-.8,0ZM29.3,5.9c.2,0,.4,0,.6-.2s.3-.2.4-.4v-1.1h-.4c-.4,0-.7,0-.9.3-.2.2-.3.4-.3.7s0,.5.2.6c.1.1.3.2.6.2Z"/>
  </g>
</svg>