<?xml version="1.0" encoding="UTF-8"?>
<svg id="Layer_2" data-name="Layer 2" xmlns="http://www.w3.org/2000/svg" width="25.87mm" height="11.35mm" xmlns:xlink="http://www.w3.org/1999/xlink" viewBox="0 0 73.33 32.17">
  <defs>
    <style>
      .cls-1 {
        fill: #231f20;
      }

      .cls-2 {
        fill: #7fa268;
      }

      .cls-3 {
        fill: #fff;
      }

      .cls-4 {
        fill: none;
      }

      .cls-5 {
        clip-path: url(#clippath);
      }
    </style>
    <clipPath id="clippath">
      <polygon class="cls-4" points="9.59 5.32 27.02 25.83 20.75 32.17 4.24 24.58 4.37 10.47 9.59 5.32"/>
    </clipPath>
  </defs>
  <g id="Warstwa_1" data-name="Warstwa 1">
    <path class="cls-2" d="M0,20.52h73.33S37.15,44.28,0,20.52Z"/>
    <ellipse class="cls-3" cx="16.15" cy="16.87" rx="12.21" ry="11.75"/>
    <g>
      <path class="cls-3" d="M32.1,22.06v2.99c0,.43.1.74.5.74s.5-.32.5-.74v-2.99h.86v2.99c0,1.08-.67,1.38-1.37,1.38s-1.37-.23-1.37-1.38v-2.99h.86Z"/>
      <path class="cls-3" d="M34.58,22.06h2.39v.71h-1.53v1.01h1.44v.71h-1.44v1.86h-.86v-4.28Z"/>
      <path class="cls-3" d="M37.46,26.35v-4.28h.86v4.28h-.86Z"/>
      <path class="cls-3" d="M39.05,23.22h.79v.94h-.79v-.94ZM39.05,25.41h.79v.94h-.79v-.94Z"/>
      <path class="cls-3" d="M42.61,23.25c-.03-.45-.19-.84-.71-.84-.73,0-.83.8-.83,1.79s.1,1.79.83,1.79.79-.88.79-1.45h-.85v-.43h1.33v2.22h-.4v-.58h-.01c-.11.37-.45.67-.92.67-1.12,0-1.31-1.07-1.31-2.22,0-1.08.2-2.22,1.38-2.22s1.27,1.05,1.27,1.27h-.55Z"/>
      <path class="cls-3" d="M43.86,22.06h1.39c.68,0,1.1.4,1.1,1.07,0,.46-.16.96-.66,1.08h0c.38.05.58.36.61.73l.04.73c.02.47.1.59.23.67h-.64c-.1-.1-.13-.41-.14-.62l-.04-.67c-.05-.59-.37-.62-.64-.62h-.71v1.91h-.53v-4.28ZM44.39,24.01h.52c.31,0,.88,0,.88-.83,0-.43-.28-.68-.77-.68h-.63v1.51Z"/>
      <path class="cls-3" d="M47.03,22.06h2.21v.47h-1.69v1.34h1.59v.47h-1.59v1.54h1.76v.47h-2.28v-4.28Z"/>
      <path class="cls-3" d="M49.87,22.06h2.21v.47h-1.69v1.34h1.59v.47h-1.59v1.54h1.76v.47h-2.28v-4.28Z"/>
      <path class="cls-3" d="M52.71,22.06h.68l1.42,3.57h.01v-3.57h.53v4.28h-.73l-1.37-3.47h-.01v3.47h-.53v-4.28Z"/>
    </g>
    <g>
      <g class="cls-5">
        <path class="cls-1" d="M16.21,27.62c-.11,0-.22,0-.33,0-3-.09-5.77-1.33-7.81-3.49-1.98-2.1-3.02-4.83-2.93-7.68.18-5.87,5.11-10.52,11.06-10.52.11,0,.22,0,.33,0,3,.09,5.77,1.33,7.81,3.49,1.98,2.1,3.02,4.83,2.93,7.68h-.1s.1,0,.1,0c-.18,5.87-5.11,10.52-11.06,10.52ZM16.2,6.12c-5.85,0-10.69,4.57-10.86,10.33-.09,2.8.94,5.48,2.88,7.54,2,2.12,4.72,3.34,7.67,3.42.11,0,.22,0,.33,0,5.85,0,10.69-4.57,10.86-10.33.09-2.8-.94-5.48-2.88-7.54-2-2.12-4.72-3.34-7.67-3.42-.11,0-.22,0-.33,0Z"/>
      </g>
      <path class="cls-2" d="M8.53,17.66s-.68-4.67,4.86-6.9c0,0,5.02-2.34,11.26.96,0,0-5.98-1.83-8.77.04,0,0,1.93,3.62,6.91,3.29,0,0,2.4.02,5.31-2.02,0,0-1.74-3.5-5.74-4.72,0,0-2.33-.69-4.57.52,0,0-2.84-.55-6.34,1.82,0,0-3.49,2.28-2.91,7Z"/>
      <path class="cls-2" d="M18.79,7.87s-6.06-.78-9.42,3.58c0,0-2.39,2.64-1.94,6.68,0,.04.06.51.07.55.95,5.61,5.93,7.4,7.01,7.46-.22,0-4.46-.14-7.16-4.72,0,0-2.28-3.37-.47-8.17,0,0,1.05-2.98,4.01-4.65,0,0,4.38-2.18,4.93-3.5,0,0,.5-.73.74-3.2,0,0-1.1,3.8-4.18,4.4,0,0-1.25-3.77,2.49-5.56C14.86.73,16.45-.01,17.69,0c0,0,1.08,3.95-.91,5.7,0,0-.74.69-2,1.29,0,0,2.86.12,4,.88Z"/>
      <rect class="cls-1" x="10.81" y="21.99" width="12.52" height=".1"/>
      <g>
        <path class="cls-1" d="M13.16,17.59c-.27.27-.61.38-.99.38s-.76-.1-1.01-.38c-.32-.34-.35-.64-.35-1.09v-2.13h.9v2.13c0,.32.05.67.46.67s.45-.34.45-.67v-2.13h.9v2.13c0,.42-.05.78-.35,1.08Z"/>
        <path class="cls-1" d="M15,15.17v.6h1.02v.79h-1.02v1.34h-.86v-3.52h1.92v.79h-1.06Z"/>
        <path class="cls-1" d="M16.55,17.9v-3.52h.9v3.52h-.9Z"/>
        <path class="cls-1" d="M12.24,21.45c-.84,0-1.58-.67-1.58-1.53s.73-1.53,1.58-1.53c.46,0,.9.2,1.2.54.08.08.15.19.19.29h-.34c-.21-.36-.64-.57-1.05-.57-.7,0-1.29.56-1.29,1.26s.6,1.26,1.3,1.26c.52,0,1.06-.36,1.19-.87h-1.65v-.27h2c-.06.81-.76,1.41-1.56,1.41Z"/>
        <path class="cls-1" d="M15.38,20.29l.83,1.1h-.37l-1-1.34c.18,0,.45.01.63-.04.29-.09.49-.32.49-.63,0-.22-.12-.46-.32-.57-.18-.1-.37-.11-.57-.11h-.51v2.68h-.29v-2.95h.75c.22,0,.52.01.73.11.33.16.53.47.53.84,0,.5-.38.87-.88.9Z"/>
        <path class="cls-1" d="M16.68,21.39v-2.95h1.61v.27h-1.32v1.06h1.28v.27h-1.28v1.09h1.32v.27h-1.61Z"/>
        <path class="cls-1" d="M18.81,21.39v-2.95h1.61v.27h-1.32v1.06h1.28v.27h-1.28v1.09h1.32v.27h-1.61Z"/>
        <path class="cls-1" d="M23.02,21.39l-1.75-2.6h0v2.6h-.29v-2.95h.4l1.65,2.45h0v-2.45h.3v2.95h-.3Z"/>
      </g>
      <g>
        <path class="cls-1" d="M11.21,23.42c-.21,0-.38-.16-.38-.37s.17-.37.37-.37c.11,0,.21.05.28.13.02.02.03.04.05.07h-.08c-.06-.08-.15-.13-.25-.13-.16,0-.3.14-.3.31s.14.3.3.3c.1,0,.19-.05.25-.14h.08c-.07.12-.19.2-.33.2Z"/>
        <path class="cls-1" d="M11.76,23.4v-.72h.07v.65h.3v.06h-.37Z"/>
        <path class="cls-1" d="M12.68,23.07c-.05.04-.12.04-.19.04h-.13v.29h-.07v-.72h.2c.06,0,.13,0,.19.04.06.04.09.1.09.17s-.03.13-.09.17ZM12.62,22.77s-.08-.02-.12-.02h-.12v.3h.12s.08,0,.12-.02c.05-.03.08-.07.08-.13s-.03-.11-.08-.13Z"/>
        <path class="cls-1" d="M13.28,23.4l-.19-.27h0v.27h-.13v-.72h.22c.06,0,.12,0,.17.05.05.04.08.11.08.17,0,.06-.03.13-.07.17-.04.03-.07.05-.12.06l.19.26h-.16ZM13.17,22.81h-.09v.22h.09c.07,0,.13-.03.13-.11s-.06-.11-.13-.11Z"/>
        <path class="cls-1" d="M13.61,23.4v-.72h.39v.12h-.25v.18h.24v.12h-.24v.17h.25v.12h-.39Z"/>
        <path class="cls-1" d="M14.72,23.4l-.08-.19h-.26l-.08.19h-.15l.3-.72h.1l.3.72h-.15ZM14.51,22.87h0l-.08.22h.16l-.08-.22Z"/>
        <path class="cls-1" d="M15.44,23.36c-.07.04-.16.05-.24.05h-.17v-.72h.16c.1,0,.22.01.29.08.08.07.12.18.12.28,0,.12-.06.25-.17.31ZM15.4,22.87c-.07-.06-.15-.06-.23-.06v.47h.03c.06,0,.12,0,.17-.03.07-.04.11-.12.11-.2,0-.07-.03-.13-.08-.18Z"/>
        <path class="cls-1" d="M16.11,23.14v.26h-.13v-.26l-.24-.45h.15l.16.33.16-.33h.15l-.24.45Z"/>
        <path class="cls-1" d="M17.23,23.42c-.21,0-.38-.16-.38-.37s.17-.37.37-.37c.11,0,.21.05.28.13.02.02.03.04.05.07h-.08c-.06-.08-.15-.13-.25-.13-.16,0-.3.14-.3.31s.14.3.3.3c.1,0,.19-.05.25-.14h.08c-.07.12-.19.2-.33.2Z"/>
        <path class="cls-1" d="M17.76,23.4v-.72h.39v.07h-.32v.26h.31v.06h-.31v.26h.32v.06h-.39Z"/>
        <path class="cls-1" d="M18.65,23.14l.2.27h-.09l-.24-.32s.11,0,.15-.01c.07-.02.12-.08.12-.15,0-.05-.03-.11-.08-.14-.04-.02-.09-.03-.14-.03h-.13v.65h-.07v-.72h.18c.05,0,.13,0,.18.03.08.04.13.12.13.2,0,.12-.09.21-.21.22Z"/>
        <path class="cls-1" d="M19.25,22.75v.65h-.07v-.65h-.16v-.07h.4v.07h-.16Z"/>
        <path class="cls-1" d="M19.59,23.4v-.72h.07v.72h-.07Z"/>
        <path class="cls-1" d="M19.97,22.75v.26h.28v.07h-.28v.33h-.07v-.72h.36v.07h-.29Z"/>
        <path class="cls-1" d="M20.47,23.4v-.72h.07v.72h-.07Z"/>
        <path class="cls-1" d="M21.13,23.42c-.21,0-.38-.16-.38-.37s.17-.37.37-.37c.11,0,.21.05.28.13.02.02.03.04.05.07h-.08c-.06-.08-.15-.13-.25-.13-.16,0-.3.14-.3.31s.14.3.3.3c.1,0,.19-.05.25-.14h.08c-.07.12-.19.2-.33.2Z"/>
        <path class="cls-1" d="M22.23,23.4l-.1-.24h-.33l-.1.24h-.07l.31-.72h.08l.31.72h-.08ZM21.96,22.77l-.14.33h.28l-.14-.33Z"/>
        <path class="cls-1" d="M22.58,22.75v.65h-.07v-.65h-.16v-.07h.4v.07h-.16Z"/>
        <path class="cls-1" d="M22.92,23.4v-.72h.39v.07h-.32v.26h.31v.06h-.31v.26h.32v.06h-.39Z"/>
      </g>
      <path class="cls-1" d="M23.28,17.06l.2.26h-.09l-.24-.31s.11,0,.15-.01c.07-.02.11-.08.11-.15,0-.05-.03-.11-.08-.13-.04-.02-.09-.03-.14-.03h-.12v.63h-.07v-.69h.18c.05,0,.12,0,.17.03.08.04.12.11.12.2,0,.12-.09.2-.21.21Z"/>
      <path class="cls-1" d="M23.25,17.68c-.39,0-.71-.32-.71-.71s.32-.71.71-.71.71.32.71.71-.32.71-.71.71ZM23.25,16.37c-.33,0-.61.27-.61.61s.27.61.61.61.61-.27.61-.61-.27-.61-.61-.61Z"/>
    </g>
    <g>
      <path class="cls-1" d="M33.95,14.97v.73h-1.58v1.04h1.48v.73h-1.48v1.19h1.64v.73h-2.53v-4.41h2.47Z"/>
      <path class="cls-1" d="M35.35,14.97v3.08c0,.44.1.77.52.77s.52-.33.52-.77v-3.08h.89v3.08c0,1.12-.69,1.42-1.41,1.42s-1.41-.24-1.41-1.42v-3.08h.89Z"/>
      <path class="cls-1" d="M37.91,14.97h.89v1.69h1.04v-1.69h.89v4.41h-.89v-1.96h-1.04v1.96h-.89v-4.41Z"/>
      <path class="cls-1" d="M43.9,19.39h-2.69c0-.78.31-1.32.96-1.92l.36-.33c.4-.35.46-.56.46-1,0-.36-.14-.54-.43-.54-.44,0-.49.39-.49.85h-.85v-.17c0-.82.42-1.27,1.36-1.27.88,0,1.31.43,1.31,1.19,0,.57-.19.95-.68,1.39l-.49.46c-.27.24-.41.48-.45.64h1.65v.69Z"/>
      <path class="cls-1" d="M45.61,15.01c1.06,0,1.37.57,1.37,2.13,0,1.21-.07,2.34-1.37,2.34-1.06,0-1.37-.57-1.37-2.13,0-1.21.07-2.34,1.37-2.34ZM45.13,17.54c0,1.11.1,1.35.48,1.35s.48-.35.48-1.47v-.48c0-1.11-.1-1.35-.48-1.35s-.48.35-.48,1.47v.48Z"/>
      <path class="cls-1" d="M47.99,17.07h0c-.48-.13-.63-.54-.63-.85,0-.86.49-1.21,1.29-1.21s1.29.35,1.29,1.21c0,.31-.17.72-.63.84h0c.49.11.74.54.74,1.09,0,.5-.18,1.32-1.4,1.32s-1.4-.82-1.4-1.32c0-.55.25-.98.74-1.08ZM48.64,18.89c.4,0,.51-.33.51-.75s-.1-.75-.51-.75-.51.33-.51.75.1.75.51.75ZM48.64,16.8c.27,0,.43-.2.43-.61s-.14-.6-.43-.6-.43.2-.43.6.17.61.43.61Z"/>
    </g>
  </g>
</svg>